<?xml version="1.0" standalone="no"?>
<!DOCTYPE svg PUBLIC "-//W3C//DTD SVG 20010904//EN"
 "http://www.w3.org/TR/2001/REC-SVG-20010904/DTD/svg10.dtd">
<svg version="1.0" xmlns="http://www.w3.org/2000/svg"
 width="499.000000pt" height="499.000000pt" viewBox="0 0 499.000000 499.000000"
 preserveAspectRatio="xMidYMid meet">

<g transform="translate(0.000000,499.000000) scale(0.100000,-0.100000)"
fill="#f06718" stroke="none">
<path d="M2355 4664 c-325 -26 -663 -128 -917 -275 -398 -230 -692 -543 -889
-944 -186 -380 -253 -796 -198 -1226 11 -85 13 -90 33 -84 143 42 181 47 305
43 104 -4 141 -10 210 -33 215 -73 386 -255 435 -465 9 -36 16 -80 16 -97 0
-37 4 -39 52 -18 137 57 320 27 428 -71 77 -70 140 -189 140 -265 l0 -29 44
33 c52 40 118 60 179 56 l45 -4 11 65 c6 36 14 78 18 95 l6 30 -48 -43 c-33
-29 -51 -39 -56 -31 -26 42 -16 293 17 459 15 76 67 243 83 269 7 10 26 13 79
9 l69 -5 19 66 19 66 40 0 40 0 20 -62 20 -62 75 -3 75 -3 22 -45 c50 -101
103 -373 103 -528 0 -94 -11 -172 -24 -172 -5 0 -32 21 -59 48 -33 32 -47 41
-44 27 3 -11 13 -54 22 -96 l16 -77 50 -4 c27 -3 72 -17 100 -32 29 -14 53
-25 54 -24 1 2 10 30 20 63 33 117 116 213 231 267 149 69 289 60 455 -29 4
-2 18 16 33 41 82 139 289 227 472 199 l69 -10 40 34 c51 44 163 98 238 114
31 7 57 16 57 21 0 4 -313 8 -695 8 l-695 0 0 -45 c0 -57 -11 -57 -30 -2 l-15
42 -87 5 c-96 6 -124 19 -166 81 -29 42 -26 103 7 145 19 24 20 30 8 39 -9 5
-21 15 -29 20 -10 8 -12 62 -10 269 l3 259 84 -149 c47 -82 115 -204 152 -271
38 -68 71 -123 76 -123 4 0 7 14 7 30 0 30 1 31 38 24 20 -4 47 -10 59 -15 20
-8 21 -6 11 22 -17 51 -6 177 22 234 84 173 316 272 515 220 160 -42 274 -165
292 -313 l6 -50 47 30 c85 53 222 51 304 -3 51 -34 107 -105 127 -161 7 -21
16 -38 20 -38 14 0 24 156 23 345 -1 218 -24 384 -79 575 -144 499 -492 954
-944 1234 -257 159 -525 257 -826 301 -103 15 -361 26 -450 19z m-419 -205
c10 -17 -13 -36 -27 -22 -12 12 -4 33 11 33 5 0 12 -5 16 -11z m284 -50 l0
-37 68 -8 c37 -5 66 -13 65 -19 -2 -5 -31 -12 -65 -15 -58 -5 -63 -7 -66 -30
-9 -82 -25 -88 -36 -15 l-7 45 -52 1 c-59 0 -102 13 -77 22 8 3 41 8 72 12
l56 6 7 42 c4 23 10 46 12 51 9 15 23 -18 23 -55z m430 21 c0 -29 2 -30 43
-31 23 0 51 -4 62 -8 16 -7 14 -9 -14 -14 -19 -4 -46 -7 -62 -7 -24 0 -29 -4
-29 -24 0 -35 -18 -42 -22 -9 -3 26 -7 29 -66 36 -35 5 -61 11 -58 14 3 3 31
8 63 12 54 6 58 8 61 34 4 37 22 35 22 -3z m-935 -171 l5 -37 66 -7 c79 -8 75
-18 -9 -25 l-62 -5 -3 -40 c-4 -48 -22 -73 -22 -29 0 65 -8 74 -64 75 -28 0
-60 4 -71 8 -15 6 -11 9 20 14 22 4 54 7 72 7 29 0 33 3 38 38 4 20 9 44 12
52 7 17 6 18 18 -51z m1335 9 c0 -13 8 -18 28 -18 39 0 73 -11 66 -21 -3 -5
-25 -9 -49 -9 -40 0 -44 -2 -50 -30 -8 -35 -25 -31 -25 6 0 21 -4 24 -39 24
-42 0 -62 14 -35 24 9 3 28 6 44 6 23 0 29 5 34 33 5 25 9 29 16 17 5 -8 10
-23 10 -32z m380 -18 c0 -24 -26 -38 -42 -22 -16 16 -2 42 22 42 13 0 20 -7
20 -20z m-888 -96 c21 -38 49 -103 62 -144 22 -70 26 -75 54 -78 24 -2 33 -10
41 -34 6 -17 11 -33 11 -34 0 -2 -97 -4 -216 -4 l-215 0 6 22 c40 125 179 355
209 345 6 -2 27 -35 48 -73z m1068 -9 c0 -8 -7 -15 -15 -15 -8 0 -15 7 -15 15
0 8 7 15 15 15 8 0 15 -7 15 -15z m-1245 -20 c0 -11 -7 -21 -16 -23 -18 -3
-33 23 -23 39 10 17 39 5 39 -16z m900 -75 c0 -8 -8 -16 -17 -18 -13 -2 -18 3
-18 18 0 15 5 20 18 18 9 -2 17 -10 17 -18z m-1896 -16 c2 -2 -8 -4 -22 -4
-19 0 -27 -5 -27 -17 -1 -17 -1 -17 -11 0 -5 9 -22 18 -37 18 l-27 1 30 8 c27
6 84 3 94 -6z m2277 -15 c10 -17 -13 -36 -27 -22 -12 12 -4 33 11 33 5 0 12
-5 16 -11z m-1616 -100 c0 -28 1 -29 49 -29 28 0 52 -4 55 -9 7 -11 -27 -21
-71 -21 -28 0 -33 -4 -33 -24 0 -37 -19 -42 -26 -7 -5 24 -12 31 -29 31 -40 0
-85 12 -79 21 3 5 27 9 53 9 48 0 49 1 55 35 8 41 26 37 26 -6z m1902 -4 c0
-5 -5 -11 -11 -13 -6 -2 -11 4 -11 13 0 9 5 15 11 13 6 -2 11 -8 11 -13z
m-2228 -34 c3 -5 -1 -14 -8 -20 -16 -13 -32 2 -21 19 8 12 22 13 29 1z m-624
-90 l45 -5 -50 -5 c-48 -6 -50 -7 -54 -41 l-4 -35 -6 35 c-6 34 -8 35 -56 39
l-50 4 50 11 c45 10 50 14 54 41 l3 30 12 -35 c10 -32 15 -35 56 -39z m1649
17 c5 -18 13 -50 17 -70 l6 -38 -256 0 c-291 0 -269 -8 -241 88 l16 52 224 0
223 0 11 -32z m943 -62 c17 -3 41 -6 55 -6 14 0 21 -4 18 -10 -3 -5 -24 -10
-45 -10 -47 0 -70 -21 -70 -62 0 -41 -11 -29 -19 19 -6 37 -7 38 -58 43 -73 8
-74 17 -4 25 55 6 61 9 61 30 0 13 3 32 7 42 6 14 9 8 15 -23 8 -36 13 -42 40
-48z m-2102 28 c0 -22 3 -24 54 -24 75 0 79 -17 6 -25 -54 -6 -60 -9 -60 -30
0 -13 -4 -27 -10 -30 -6 -4 -10 6 -10 23 0 25 -5 30 -31 36 -17 3 -45 6 -62 6
-50 0 -18 18 38 22 46 3 50 5 53 31 4 33 22 26 22 -9z m1199 -134 c15 -69 14
-87 -5 -98 -13 -7 -16 -72 -19 -553 -2 -299 -4 -586 -4 -636 l-1 -93 -29 0
c-17 0 -33 5 -36 10 -8 13 -329 13 -353 1 -9 -5 -53 -16 -98 -24 -189 -34
-316 -142 -379 -322 -12 -36 -25 -69 -29 -72 -3 -4 -6 74 -6 173 l0 180 190
332 190 332 0 267 c0 245 16 485 36 536 5 15 34 17 269 17 l263 0 11 -50z
m-775 17 c28 -21 12 -59 -22 -55 -30 3 -41 30 -22 53 15 18 21 19 44 2z m1064
-10 c2 -10 -3 -17 -12 -17 -18 0 -29 16 -21 31 9 14 29 6 33 -14z m190 -10 c4
-20 -25 -34 -40 -19 -15 15 -1 44 19 40 10 -2 19 -11 21 -21z m-2488 -52 c15
-18 5 -35 -20 -35 -10 0 -22 5 -25 10 -7 11 12 40 25 40 4 0 13 -7 20 -15z
m3096 -54 c-4 -6 -16 -11 -27 -11 -21 0 -27 35 -6 43 16 6 41 -18 33 -32z
m-2256 -41 c54 0 60 -18 8 -22 -39 -3 -44 -6 -49 -33 l-6 -30 -8 33 c-7 29
-11 32 -47 32 -24 0 -37 4 -33 10 3 6 22 10 41 10 26 0 34 4 34 18 0 30 15 36
18 8 3 -23 8 -26 42 -26z m530 -1 c0 -25 -33 -22 -38 4 -2 12 3 17 17 17 15 0
21 -6 21 -21z m-1158 -16 c3 -26 7 -28 53 -31 66 -4 84 -22 23 -22 -62 0 -78
-8 -78 -36 0 -33 -18 -30 -22 4 -3 25 -7 27 -63 32 -65 6 -57 18 15 22 41 3
45 6 48 31 2 15 7 27 12 27 5 0 10 -12 12 -27z m3238 -17 c0 -22 5 -25 43 -28
54 -4 55 -22 0 -26 -36 -3 -42 -7 -45 -28 -4 -34 -22 -35 -26 -1 -3 24 -7 27
-43 27 -28 0 -39 4 -39 15 0 11 11 15 40 15 36 0 40 3 40 25 0 16 6 25 15 25
9 0 15 -9 15 -24z m-413 -119 l5 -44 70 -5 c38 -3 72 -8 75 -12 14 -14 -17
-27 -80 -33 -65 -6 -67 -7 -67 -34 0 -37 -18 -82 -30 -74 -5 3 -12 28 -16 54
l-6 49 -69 6 c-63 7 -90 18 -75 33 3 3 36 8 75 11 l69 5 6 47 c10 78 34 76 43
-3z m-497 8 c0 -8 -9 -15 -20 -15 -20 0 -26 11 -13 23 12 13 33 7 33 -8z
m-1905 -51 c66 -17 128 -49 179 -94 44 -39 96 -138 103 -199 l6 -50 56 32 c49
28 65 32 131 32 64 0 82 -4 122 -27 43 -26 108 -99 108 -122 0 -11 -141 -264
-173 -309 l-19 -28 -611 3 -612 3 -43 25 c-119 68 -108 216 21 276 60 27 148
32 210 10 l38 -14 -8 31 c-16 64 -8 169 17 222 79 165 290 258 475 209z m442
-10 c8 -20 -8 -36 -26 -25 -15 10 -8 41 9 41 6 0 13 -7 17 -16z m1545 -24 c3
-22 9 -26 58 -30 70 -6 67 -24 -5 -28 -53 -3 -55 -4 -55 -32 0 -16 -4 -31 -9
-34 -10 -7 -21 17 -21 45 0 16 -7 19 -47 19 -57 0 -91 16 -52 24 13 3 39 7 58
8 30 3 36 7 44 37 9 36 23 32 29 -9z m-459 23 c9 -9 -13 -34 -24 -27 -14 8
-11 34 4 34 8 0 17 -3 20 -7z m-878 -28 c0 -22 -31 -33 -47 -17 -17 17 -1 44
24 40 15 -2 23 -10 23 -23z m-1310 -155 c0 -18 -6 -26 -23 -28 -24 -4 -38 18
-28 44 3 9 15 14 28 12 17 -2 23 -10 23 -28z m3725 15 c17 -20 5 -45 -20 -45
-11 0 -23 7 -26 15 -6 15 11 45 26 45 4 0 13 -7 20 -15z m-520 -40 c20 -24 8
-50 -24 -50 -36 0 -56 26 -37 49 17 20 45 21 61 1z m308 -18 c2 -12 -3 -17
-17 -17 -12 0 -21 6 -21 13 0 31 32 34 38 4z m-1260 -37 c13 0 11 -4 -6 -21
-20 -18 -24 -18 -37 -5 -14 13 -14 17 2 36 15 17 19 18 21 5 2 -8 11 -15 20
-15z m-2430 -13 c4 -20 -25 -34 -40 -19 -15 15 -1 44 19 40 10 -2 19 -11 21
-21z m2954 -4 c2 -21 9 -29 28 -31 82 -9 88 -27 15 -38 -39 -5 -45 -10 -45
-30 0 -13 -4 -24 -10 -24 -5 0 -10 8 -10 19 0 25 -19 39 -60 43 -49 4 -44 22
8 26 38 3 43 6 49 33 7 37 21 38 25 2z m545 -134 c15 -15 5 -39 -17 -39 -22 0
-32 24 -17 39 6 6 14 11 17 11 3 0 11 -5 17 -11z m-737 -24 c0 -8 -7 -15 -15
-15 -16 0 -20 12 -8 23 11 12 23 8 23 -8z m910 -194 c12 -23 5 -47 -16 -55
-22 -8 -54 11 -54 32 0 41 51 57 70 23z m188 -18 c3 -19 -1 -23 -21 -23 -26 0
-38 15 -29 38 8 22 47 10 50 -15z m-3925 -175 c7 -21 -4 -38 -23 -38 -23 0
-34 16 -26 35 7 18 43 20 49 3z m697 -103 c0 -22 5 -25 60 -31 73 -8 69 -24
-6 -24 -53 0 -54 0 -54 -29 0 -42 -18 -48 -22 -9 -3 32 -5 33 -53 36 -73 5
-76 18 -6 26 60 7 61 8 61 37 0 18 4 28 10 24 6 -3 10 -17 10 -30z m-332 -2
c-2 -10 -10 -18 -18 -18 -8 0 -16 8 -18 18 -2 12 3 17 18 17 15 0 20 -5 18
-17z m800 -33 c16 -1 15 -2 0 -11 -10 -5 -18 -20 -19 -32 -1 -20 -2 -20 -8 3
-5 17 -16 27 -36 31 l-30 7 33 1 c26 1 32 5 33 24 l2 22 4 -22 c2 -13 12 -23
21 -23z m-1098 -35 c0 -8 -7 -15 -15 -15 -8 0 -15 7 -15 15 0 8 7 15 15 15 8
0 15 -7 15 -15z m922 -175 c63 0 62 -16 -2 -24 -38 -5 -50 -11 -50 -24 0 -9
-4 -24 -9 -31 -8 -12 -11 -8 -17 15 -9 37 -20 44 -66 44 -21 0 -38 5 -38 10 0
6 23 10 50 10 43 0 50 3 50 19 0 11 3 28 7 38 6 14 10 10 17 -19 9 -37 10 -38
58 -38z m225 -86 c8 -22 -18 -37 -36 -20 -7 8 -10 19 -7 25 10 16 36 13 43 -5z
m413 -124 c0 -5 -4 -10 -9 -10 -6 0 -13 5 -16 10 -3 6 1 10 9 10 9 0 16 -4 16
-10z m845 -121 c0 -7 -8 -15 -17 -17 -18 -3 -25 18 -11 32 10 10 28 1 28 -15z
m-1225 1 c0 -5 -4 -10 -10 -10 -5 0 -10 5 -10 10 0 6 5 10 10 10 6 0 10 -4 10
-10z m264 -78 c8 -13 -11 -35 -23 -28 -16 10 -14 36 3 36 8 0 17 -4 20 -8z
m991 -132 c0 -18 -33 -26 -47 -12 -6 6 -7 15 -3 22 10 16 50 8 50 -10z"/>
<path d="M2429 3497 c-90 -60 -88 -181 4 -237 60 -37 143 -17 183 46 25 37 24
116 -2 152 -25 34 -79 62 -120 62 -17 0 -46 -10 -65 -23z m124 -18 c74 -33 74
-165 0 -198 -38 -18 -98 -13 -126 9 -82 64 -38 200 64 200 21 0 49 -5 62 -11z"/>
<path d="M2538 2122 l-27 -3 -1 -183 c0 -218 -12 -326 -40 -372 l-21 -33 22
-81 c11 -44 23 -80 25 -80 15 0 68 210 85 335 13 98 8 402 -7 414 -5 3 -21 5
-36 3z"/>
<path d="M650 1390 c6 -11 13 -20 16 -20 2 0 0 9 -6 20 -6 11 -13 20 -16 20
-2 0 0 -9 6 -20z"/>
<path d="M741 1255 c90 -138 328 -381 479 -489 339 -243 687 -371 1116 -411
l71 -7 -13 72 c-8 39 -17 113 -21 163 l-8 92 -107 -2 c-120 -2 -257 -23 -398
-60 -52 -14 -108 -26 -124 -27 -28 -1 -31 3 -51 61 -12 34 -39 85 -61 113 -48
64 -153 144 -217 168 -36 13 -61 32 -98 77 -64 76 -117 118 -199 160 -90 45
-190 74 -280 82 -64 5 -78 9 -98 32 -15 16 -11 7 9 -24z"/>
<path d="M4246 1251 c-3 -4 -56 -11 -118 -14 -203 -10 -330 -63 -466 -192 -78
-74 -90 -81 -152 -97 -95 -23 -164 -61 -232 -126 -68 -65 -93 -103 -124 -186
-14 -38 -27 -60 -36 -58 -7 2 -62 16 -123 32 -102 26 -295 60 -343 60 -18 0
-21 -8 -27 -67 -4 -38 -13 -108 -20 -158 -8 -49 -12 -91 -10 -93 2 -3 70 3
151 12 487 55 933 274 1289 632 88 88 235 264 221 264 -3 0 -7 -4 -10 -9z"/>
</g>
</svg>
